<svg width="339" height="66" viewBox="0 0 339 66" fill="none" xmlns="http://www.w3.org/2000/svg">
<path fill-rule="evenodd" clip-rule="evenodd" d="M42.1316 0.679763C41.2305 -0.226583 39.7695 -0.226583 38.8684 0.679764L34.5176 5.05599C33.6165 5.96234 33.6165 7.43182 34.5176 8.33816L38.8684 12.7144C39.0999 12.9472 39.3683 13.1202 39.6547 13.2334L39.6547 34.1998C39.3683 34.313 39.0999 34.486 38.8684 34.7188L34.5176 39.0951C33.6165 40.0014 33.6165 41.4709 34.5176 42.3772L38.8684 46.7535C39.7695 47.6598 41.2305 47.6598 42.1316 46.7535L46.4824 42.3772C47.3835 41.4709 47.3835 40.0014 46.4824 39.0951L42.1316 34.7188C41.8595 34.4452 41.5363 34.2541 41.193 34.1457L41.193 13.2875C41.5363 13.1791 41.8595 12.9881 42.1316 12.7144L46.4824 8.33816C47.3835 7.43182 47.3835 5.96234 46.4824 5.05599L42.1316 0.679763ZM8.28982 34.7188C7.38873 33.8125 5.92777 33.8125 5.02668 34.7188L0.675816 39.0951C-0.225274 40.0014 -0.225274 41.4709 0.675817 42.3772L5.02668 46.7535C5.92777 47.6598 7.38873 47.6598 8.28983 46.7535L12.6407 42.3772C13.5418 41.4709 13.5418 40.0014 12.6407 39.0951L8.28982 34.7188ZM72.7102 34.7188C73.6113 33.8125 75.0722 33.8125 75.9733 34.7188L80.3242 39.0951C81.2253 40.0014 81.2253 41.4709 80.3242 42.3772L75.9733 46.7535C75.0722 47.6598 73.6113 47.6598 72.7102 46.7535L68.3593 42.3772C67.4582 41.4709 67.4582 40.0014 68.3593 39.0951L72.7102 34.7188ZM21.1951 33.3473C20.9089 33.2341 20.6406 33.0611 20.4093 32.8284L16.0584 28.4522C15.1573 27.5458 15.1573 26.0763 16.0584 25.17L20.4093 20.7938C21.3104 19.8874 22.7713 19.8874 23.6724 20.7938L28.0233 25.17C28.9244 26.0763 28.9244 27.5458 28.0233 28.4522L23.6724 32.8284C23.4002 33.1022 23.0769 33.2933 22.7334 33.4017L22.7334 52.7123C23.0769 52.8207 23.4002 53.0118 23.6724 53.2856L28.0233 57.6618C28.9244 58.5682 28.9244 60.0377 28.0233 60.944L23.6724 65.3202C22.7713 66.2266 21.3104 66.2266 20.4093 65.3202L16.0584 60.944C15.1573 60.0377 15.1573 58.5682 16.0584 57.6618L20.4093 53.2856C20.6406 53.0529 20.9089 52.88 21.1951 52.7667L21.1951 33.3473ZM57.3276 32.8284C57.5589 33.0611 57.8272 33.234 58.1134 33.3473L58.1134 52.7667C57.8272 52.8799 57.5589 53.0529 57.3276 53.2856L52.9767 57.6618C52.0756 58.5682 52.0756 60.0377 52.9767 60.944L57.3276 65.3202C58.2287 66.2266 59.6896 66.2266 60.5907 65.3202L64.9416 60.944C65.8427 60.0377 65.8427 58.5682 64.9416 57.6618L60.5907 53.2856C60.3185 53.0118 59.9952 52.8207 59.6517 52.7123L59.6517 33.4017C59.9952 33.2933 60.3185 33.1022 60.5907 32.8284L64.9416 28.4522C65.8427 27.5458 65.8427 26.0763 64.9416 25.17L60.5907 20.7938C59.6896 19.8874 58.2287 19.8874 57.3276 20.7938L52.9767 25.17C52.0756 26.0763 52.0756 27.5458 52.9767 28.4522L57.3276 32.8284Z" fill="url(#paint0_linear_101_16)"/>
<path d="M108.637 46.3281C108.745 47.8868 109.097 49.4187 109.693 50.9236C110.343 52.3748 111.209 53.6648 112.292 54.7935C113.43 55.9222 114.811 56.8359 116.436 57.5347C118.114 58.2334 120.037 58.5827 122.204 58.5827C124.153 58.5827 125.941 58.2334 127.565 57.5347C129.244 56.8359 130.68 55.8416 131.871 54.5516C133.063 53.2079 133.983 51.5955 134.633 49.7143C135.337 47.8331 135.689 45.7369 135.689 43.4257V9H143.651V43.6676C143.651 47.5912 143.082 50.9774 141.945 53.826C140.862 56.6209 139.345 58.9321 137.395 60.7595C135.446 62.587 133.171 63.9307 130.571 64.7907C127.972 65.5969 125.182 66 122.204 66C119.658 66 117.14 65.6775 114.648 65.0325C112.211 64.3876 110.018 63.3663 108.068 61.9689C106.118 60.5177 104.493 58.6902 103.193 56.4866C101.894 54.2829 101.162 51.6223 101 48.505L108.637 46.3281Z" fill="black"/>
<path d="M170.064 65.9194C167.085 65.9194 164.242 65.5163 161.534 64.71C158.826 63.8501 156.443 62.5601 154.385 60.8402C152.381 59.1202 150.783 56.9703 149.592 54.3904C148.4 51.8105 147.804 48.7737 147.804 45.2801C147.804 41.7864 148.4 38.7496 149.592 36.1697C150.783 33.5898 152.381 31.4399 154.385 29.7199C156.443 28 158.826 26.7369 161.534 25.9307C164.242 25.0707 167.085 24.6407 170.064 24.6407C173.043 24.6407 175.832 25.0707 178.432 25.9307C181.085 26.7907 183.387 28.0806 185.337 29.8006C187.287 31.4668 188.83 33.5898 189.968 36.1697C191.105 38.7496 191.674 41.7864 191.674 45.2801C191.674 45.8713 191.674 46.2744 191.674 46.4894C191.674 46.6506 191.62 47 191.511 47.5375H156.091C156.686 51.5686 158.257 54.5785 160.803 56.5672C163.348 58.5559 166.489 59.5233 170.226 59.4696C173.368 59.4158 176.103 58.8246 178.432 57.6959C180.815 56.5672 182.575 54.4979 183.712 51.488L191.024 52.4554C190.266 54.8741 189.182 56.9434 187.774 58.6634C186.42 60.3833 184.822 61.7808 182.981 62.8557C181.14 63.8769 179.109 64.6563 176.888 65.1938C174.722 65.6775 172.447 65.9194 170.064 65.9194ZM170.226 30.8487C168.439 30.8487 166.652 31.198 164.865 31.8967C163.077 32.5417 161.507 33.5629 160.153 34.9604C158.799 36.3041 157.715 38.024 156.903 40.1202C156.145 42.2164 155.874 44.6888 156.091 47.5375C156.416 46.4625 156.768 45.6025 157.147 44.9576C157.58 44.3126 158.068 43.8289 158.609 43.5064C159.205 43.1839 159.855 42.9689 160.559 42.8614C161.317 42.7539 162.184 42.7001 163.159 42.7001H184.118C183.523 38.5615 181.979 35.5785 179.488 33.7511C177.051 31.8699 173.963 30.9024 170.226 30.8487Z" fill="black"/>
<path d="M203.123 52.4554C203.503 55.1966 204.721 57.1047 206.779 58.1796C208.837 59.2009 211.681 59.7115 215.309 59.7115C219.209 59.7115 222.161 59.1471 224.164 58.0184C226.168 56.8897 227.17 55.0085 227.17 52.3748C227.17 51.0849 226.385 50.1711 224.814 49.6337C223.298 49.0962 221.402 48.6931 219.128 48.4243C216.853 48.1018 214.362 47.8062 211.654 47.5375C208.946 47.215 206.454 46.7044 204.18 46.0057C201.905 45.3069 199.982 44.2588 198.411 42.8614C196.895 41.4639 196.137 39.529 196.137 37.0566C196.137 35.1216 196.489 33.4823 197.193 32.1386C197.951 30.7412 198.899 29.5856 200.036 28.6719C201.174 27.7581 202.446 27.0325 203.855 26.4951C205.317 25.9038 206.752 25.4738 208.16 25.2051C209.568 24.9364 210.922 24.7751 212.222 24.7214C213.522 24.6139 214.578 24.5601 215.391 24.5601C216.961 24.5601 218.748 24.7214 220.752 25.0438C222.81 25.3126 224.76 25.8501 226.602 26.6563C228.497 27.4625 230.122 28.5644 231.476 29.9618C232.884 31.3593 233.751 33.1867 234.076 35.4441L226.845 36.4922C226.412 34.2348 225.248 32.7298 223.352 31.9774C221.511 31.1711 218.803 30.768 215.228 30.768C211.545 30.768 208.756 31.2249 206.86 32.1386C205.019 33.0523 204.098 34.7723 204.098 37.2984C204.098 38.5884 204.857 39.529 206.373 40.1202C207.944 40.6577 209.866 41.0877 212.141 41.4102C214.416 41.7327 216.907 42.0283 219.615 42.297C222.323 42.5658 224.814 43.0495 227.089 43.7482C229.364 44.447 231.259 45.4682 232.776 46.8119C234.347 48.1556 235.132 50.0636 235.132 52.5361C235.132 55.5997 234.319 58.0453 232.695 59.8727C231.124 61.6464 229.228 62.9901 227.008 63.9038C224.841 64.7638 222.648 65.3013 220.427 65.5163C218.207 65.785 216.447 65.9194 215.147 65.9194C214.389 65.9194 213.387 65.8656 212.141 65.7581C210.895 65.6506 209.568 65.4625 208.16 65.1938C206.752 64.8713 205.317 64.4413 203.855 63.9038C202.446 63.3663 201.119 62.6407 199.874 61.727C198.682 60.8133 197.68 59.7115 196.868 58.4215C196.056 57.1315 195.568 55.5997 195.406 53.826L203.123 52.4554Z" fill="black"/>
<path d="M246.441 52.4554C246.82 55.1966 248.038 57.1047 250.096 58.1796C252.155 59.2009 254.998 59.7115 258.627 59.7115C262.526 59.7115 265.478 59.1471 267.482 58.0184C269.486 56.8897 270.488 55.0085 270.488 52.3748C270.488 51.0849 269.702 50.1711 268.132 49.6337C266.615 49.0962 264.72 48.6931 262.445 48.4243C260.17 48.1018 257.679 47.8062 254.971 47.5375C252.263 47.215 249.771 46.7044 247.497 46.0057C245.222 45.3069 243.299 44.2588 241.729 42.8614C240.212 41.4639 239.454 39.529 239.454 37.0566C239.454 35.1216 239.806 33.4823 240.51 32.1386C241.268 30.7412 242.216 29.5856 243.354 28.6719C244.491 27.7581 245.764 27.0325 247.172 26.4951C248.634 25.9038 250.069 25.4738 251.478 25.2051C252.886 24.9364 254.24 24.7751 255.54 24.7214C256.839 24.6139 257.895 24.5601 258.708 24.5601C260.278 24.5601 262.066 24.7214 264.07 25.0438C266.128 25.3126 268.078 25.8501 269.919 26.6563C271.815 27.4625 273.439 28.5644 274.793 29.9618C276.201 31.3593 277.068 33.1867 277.393 35.4441L270.163 36.4922C269.729 34.2348 268.565 32.7298 266.669 31.9774C264.828 31.1711 262.12 30.768 258.545 30.768C254.863 30.768 252.073 31.2249 250.178 32.1386C248.336 33.0523 247.416 34.7723 247.416 37.2984C247.416 38.5884 248.174 39.529 249.69 40.1202C251.261 40.6577 253.184 41.0877 255.458 41.4102C257.733 41.7327 260.224 42.0283 262.932 42.297C265.64 42.5658 268.132 43.0495 270.406 43.7482C272.681 44.447 274.577 45.4682 276.093 46.8119C277.664 48.1556 278.449 50.0636 278.449 52.5361C278.449 55.5997 277.637 58.0453 276.012 59.8727C274.441 61.6464 272.546 62.9901 270.325 63.9038C268.159 64.7638 265.965 65.3013 263.745 65.5163C261.524 65.785 259.764 65.9194 258.464 65.9194C257.706 65.9194 256.704 65.8656 255.458 65.7581C254.213 65.6506 252.886 65.4625 251.478 65.1938C250.069 64.8713 248.634 64.4413 247.172 63.9038C245.764 63.3663 244.437 62.6407 243.191 61.727C242 60.8133 240.998 59.7115 240.185 58.4215C239.373 57.1315 238.885 55.5997 238.723 53.826L246.441 52.4554Z" fill="black"/>
<path d="M290.895 15.8529V9H282.69V15.8529H290.895ZM282.853 25.1245H290.733V65.4356H282.853V25.1245Z" fill="black"/>
<path d="M317.39 65.9194C314.411 65.9194 311.568 65.5163 308.86 64.71C306.152 63.8501 303.769 62.5601 301.711 60.8402C299.707 59.1202 298.109 56.9703 296.918 54.3904C295.726 51.8105 295.131 48.7737 295.131 45.2801C295.131 41.7864 295.726 38.7496 296.918 36.1697C298.109 33.5898 299.707 31.4399 301.711 29.7199C303.769 28 306.152 26.7369 308.86 25.9307C311.568 25.0707 314.411 24.6407 317.39 24.6407C320.369 24.6407 323.158 25.0707 325.758 25.9307C328.412 26.7907 330.714 28.0806 332.663 29.8006C334.613 31.4668 336.157 33.5898 337.294 36.1697C338.431 38.7496 339 41.7864 339 45.2801C339 45.8713 339 46.2744 339 46.4894C339 46.6506 338.946 47 338.838 47.5375H303.417C304.013 51.5686 305.583 54.5785 308.129 56.5672C310.674 58.5559 313.816 59.5233 317.553 59.4696C320.694 59.4158 323.429 58.8246 325.758 57.6959C328.141 56.5672 329.901 54.4979 331.038 51.488L338.35 52.4554C337.592 54.8741 336.509 56.9434 335.1 58.6634C333.746 60.3833 332.149 61.7808 330.307 62.8557C328.466 63.8769 326.435 64.6563 324.214 65.1938C322.048 65.6775 319.773 65.9194 317.39 65.9194ZM317.553 30.8487C315.765 30.8487 313.978 31.198 312.191 31.8967C310.404 32.5417 308.833 33.5629 307.479 34.9604C306.125 36.3041 305.042 38.024 304.229 40.1202C303.471 42.2164 303.2 44.6888 303.417 47.5375C303.742 46.4625 304.094 45.6025 304.473 44.9576C304.906 44.3126 305.394 43.8289 305.935 43.5064C306.531 43.1839 307.181 42.9689 307.885 42.8614C308.643 42.7539 309.51 42.7001 310.485 42.7001H331.445C330.849 38.5615 329.305 35.5785 326.814 33.7511C324.377 31.8699 321.29 30.9024 317.553 30.8487Z" fill="black"/>
<defs>
<linearGradient id="paint0_linear_101_16" x1="75.2785" y1="1.50076" x2="59.6616" y2="71.8324" gradientUnits="userSpaceOnUse">
<stop stop-color="#3FB6EC"/>
<stop offset="0.317708" stop-color="#4883F7"/>
<stop offset="0.735095" stop-color="#774DF6"/>
<stop offset="1" stop-color="#9747EC"/>
</linearGradient>
</defs>
</svg>
