<svg width="81" height="66" viewBox="0 0 81 66" fill="none" xmlns="http://www.w3.org/2000/svg">
<path fill-rule="evenodd" clip-rule="evenodd" d="M42.1316 0.679763C41.2305 -0.226583 39.7695 -0.226583 38.8684 0.679764L34.5176 5.05599C33.6165 5.96234 33.6165 7.43182 34.5176 8.33816L38.8684 12.7144C39.0999 12.9472 39.3683 13.1202 39.6547 13.2334L39.6547 34.1998C39.3683 34.313 39.0999 34.486 38.8684 34.7188L34.5176 39.0951C33.6165 40.0014 33.6165 41.4709 34.5176 42.3772L38.8684 46.7535C39.7695 47.6598 41.2305 47.6598 42.1316 46.7535L46.4824 42.3772C47.3835 41.4709 47.3835 40.0014 46.4824 39.0951L42.1316 34.7188C41.8595 34.4452 41.5363 34.2541 41.193 34.1457L41.193 13.2875C41.5363 13.1791 41.8595 12.9881 42.1316 12.7144L46.4824 8.33816C47.3835 7.43182 47.3835 5.96234 46.4824 5.05599L42.1316 0.679763ZM8.28982 34.7188C7.38873 33.8125 5.92777 33.8125 5.02668 34.7188L0.675816 39.0951C-0.225274 40.0014 -0.225274 41.4709 0.675817 42.3772L5.02668 46.7535C5.92777 47.6598 7.38873 47.6598 8.28983 46.7535L12.6407 42.3772C13.5418 41.4709 13.5418 40.0014 12.6407 39.0951L8.28982 34.7188ZM72.7102 34.7188C73.6113 33.8125 75.0722 33.8125 75.9733 34.7188L80.3242 39.0951C81.2253 40.0014 81.2253 41.4709 80.3242 42.3772L75.9733 46.7535C75.0722 47.6598 73.6113 47.6598 72.7102 46.7535L68.3593 42.3772C67.4582 41.4709 67.4582 40.0014 68.3593 39.0951L72.7102 34.7188ZM21.1951 33.3473C20.9089 33.2341 20.6406 33.0611 20.4093 32.8284L16.0584 28.4522C15.1573 27.5458 15.1573 26.0763 16.0584 25.17L20.4093 20.7938C21.3104 19.8874 22.7713 19.8874 23.6724 20.7938L28.0233 25.17C28.9244 26.0763 28.9244 27.5458 28.0233 28.4522L23.6724 32.8284C23.4002 33.1022 23.0769 33.2933 22.7334 33.4017L22.7334 52.7123C23.0769 52.8207 23.4002 53.0118 23.6724 53.2856L28.0233 57.6618C28.9244 58.5682 28.9244 60.0377 28.0233 60.944L23.6724 65.3202C22.7713 66.2266 21.3104 66.2266 20.4093 65.3202L16.0584 60.944C15.1573 60.0377 15.1573 58.5682 16.0584 57.6618L20.4093 53.2856C20.6406 53.0529 20.9089 52.88 21.1951 52.7667L21.1951 33.3473ZM57.3276 32.8284C57.5589 33.0611 57.8272 33.234 58.1134 33.3473L58.1134 52.7667C57.8272 52.8799 57.5589 53.0529 57.3276 53.2856L52.9767 57.6618C52.0756 58.5682 52.0756 60.0377 52.9767 60.944L57.3276 65.3202C58.2287 66.2266 59.6896 66.2266 60.5907 65.3202L64.9416 60.944C65.8427 60.0377 65.8427 58.5682 64.9416 57.6618L60.5907 53.2856C60.3185 53.0118 59.9952 52.8207 59.6517 52.7123L59.6517 33.4017C59.9952 33.2933 60.3185 33.1022 60.5907 32.8284L64.9416 28.4522C65.8427 27.5458 65.8427 26.0763 64.9416 25.17L60.5907 20.7938C59.6896 19.8874 58.2287 19.8874 57.3276 20.7938L52.9767 25.17C52.0756 26.0763 52.0756 27.5458 52.9767 28.4522L57.3276 32.8284Z" fill="url(#paint0_linear_101_24)"/>
<defs>
<linearGradient id="paint0_linear_101_24" x1="75.2785" y1="1.50076" x2="59.6616" y2="71.8324" gradientUnits="userSpaceOnUse">
<stop stop-color="#3FB6EC"/>
<stop offset="0.317708" stop-color="#4883F7"/>
<stop offset="0.735095" stop-color="#774DF6"/>
<stop offset="1" stop-color="#9747EC"/>
</linearGradient>
</defs>
</svg>
